<svg id="my-svg" width="100%" xmlns="http://www.w3.org/2000/svg" xmlns:xlink="http://www.w3.org/1999/xlink" style="max-width: 913.3671875px; background-color: white;" viewBox="-8 -8 913.3671875 3728.7421875" role="graphics-document document" aria-roledescription="flowchart-v2"><style>#my-svg{font-family:"trebuchet ms",verdana,arial,sans-serif;font-size:16px;fill:#333;}#my-svg .error-icon{fill:#552222;}#my-svg .error-text{fill:#552222;stroke:#552222;}#my-svg .edge-thickness-normal{stroke-width:2px;}#my-svg .edge-thickness-thick{stroke-width:3.5px;}#my-svg .edge-pattern-solid{stroke-dasharray:0;}#my-svg .edge-pattern-dashed{stroke-dasharray:3;}#my-svg .edge-pattern-dotted{stroke-dasharray:2;}#my-svg .marker{fill:#333333;stroke:#333333;}#my-svg .marker.cross{stroke:#333333;}#my-svg svg{font-family:"trebuchet ms",verdana,arial,sans-serif;font-size:16px;}#my-svg .label{font-family:"trebuchet ms",verdana,arial,sans-serif;color:#333;}#my-svg .cluster-label text{fill:#333;}#my-svg .cluster-label span,#my-svg p{color:#333;}#my-svg .label text,#my-svg span,#my-svg p{fill:#333;color:#333;}#my-svg .node rect,#my-svg .node circle,#my-svg .node ellipse,#my-svg .node polygon,#my-svg .node path{fill:#ECECFF;stroke:#9370DB;stroke-width:1px;}#my-svg .flowchart-label text{text-anchor:middle;}#my-svg .node .katex path{fill:#000;stroke:#000;stroke-width:1px;}#my-svg .node .label{text-align:center;}#my-svg .node.clickable{cursor:pointer;}#my-svg .arrowheadPath{fill:#333333;}#my-svg .edgePath .path{stroke:#333333;stroke-width:2.0px;}#my-svg .flowchart-link{stroke:#333333;fill:none;}#my-svg .edgeLabel{background-color:#e8e8e8;text-align:center;}#my-svg .edgeLabel rect{opacity:0.5;background-color:#e8e8e8;fill:#e8e8e8;}#my-svg .labelBkg{background-color:rgba(232, 232, 232, 0.5);}#my-svg .cluster rect{fill:#ffffde;stroke:#aaaa33;stroke-width:1px;}#my-svg .cluster text{fill:#333;}#my-svg .cluster span,#my-svg p{color:#333;}#my-svg div.mermaidTooltip{position:absolute;text-align:center;max-width:200px;padding:2px;font-family:"trebuchet ms",verdana,arial,sans-serif;font-size:12px;background:hsl(80, 100%, 96.2745098039%);border:1px solid #aaaa33;border-radius:2px;pointer-events:none;z-index:100;}#my-svg .flowchartTitleText{text-anchor:middle;font-size:18px;fill:#333;}#my-svg :root{--mermaid-font-family:"trebuchet ms",verdana,arial,sans-serif;}#my-svg .gate>*{stroke:#dc2626!important;stroke-width:2px!important;}#my-svg .gate span{stroke:#dc2626!important;stroke-width:2px!important;}#my-svg .store>*{stroke:#7c3aed!important;stroke-width:2px!important;}#my-svg .store span{stroke:#7c3aed!important;stroke-width:2px!important;}</style><g><marker id="my-svg_flowchart-pointEnd" class="marker flowchart" viewBox="0 0 10 10" refX="6" refY="5" markerUnits="userSpaceOnUse" markerWidth="12" markerHeight="12" orient="auto"><path d="M 0 0 L 10 5 L 0 10 z" class="arrowMarkerPath" style="stroke-width: 1; stroke-dasharray: 1, 0;"></path></marker><marker id="my-svg_flowchart-pointStart" class="marker flowchart" viewBox="0 0 10 10" refX="4.5" refY="5" markerUnits="userSpaceOnUse" markerWidth="12" markerHeight="12" orient="auto"><path d="M 0 5 L 10 10 L 10 0 z" class="arrowMarkerPath" style="stroke-width: 1; stroke-dasharray: 1, 0;"></path></marker><marker id="my-svg_flowchart-circleEnd" class="marker flowchart" viewBox="0 0 10 10" refX="11" refY="5" markerUnits="userSpaceOnUse" markerWidth="11" markerHeight="11" orient="auto"><circle cx="5" cy="5" r="5" class="arrowMarkerPath" style="stroke-width: 1; stroke-dasharray: 1, 0;"></circle></marker><marker id="my-svg_flowchart-circleStart" class="marker flowchart" viewBox="0 0 10 10" refX="-1" refY="5" markerUnits="userSpaceOnUse" markerWidth="11" markerHeight="11" orient="auto"><circle cx="5" cy="5" r="5" class="arrowMarkerPath" style="stroke-width: 1; stroke-dasharray: 1, 0;"></circle></marker><marker id="my-svg_flowchart-crossEnd" class="marker cross flowchart" viewBox="0 0 11 11" refX="12" refY="5.2" markerUnits="userSpaceOnUse" markerWidth="11" markerHeight="11" orient="auto"><path d="M 1,1 l 9,9 M 10,1 l -9,9" class="arrowMarkerPath" style="stroke-width: 2; stroke-dasharray: 1, 0;"></path></marker><marker id="my-svg_flowchart-crossStart" class="marker cross flowchart" viewBox="0 0 11 11" refX="-1" refY="5.2" markerUnits="userSpaceOnUse" markerWidth="11" markerHeight="11" orient="auto"><path d="M 1,1 l 9,9 M 10,1 l -9,9" class="arrowMarkerPath" style="stroke-width: 2; stroke-dasharray: 1, 0;"></path></marker><g class="root"><g class="clusters"></g><g class="edgePaths"><path d="M349.014,33.5L349.014,37.667C349.014,41.833,349.014,50.167,349.014,57.617C349.014,65.067,349.014,71.633,349.014,74.917L349.014,78.2" id="L-A-B-0" class=" edge-thickness-normal edge-pattern-solid flowchart-link LS-A LE-B" style="fill:none;" marker-end="url(#my-svg_flowchart-pointEnd)"></path><path d="M349.014,117L349.014,121.167C349.014,125.333,349.014,133.667,349.08,141.2C349.146,148.734,349.278,155.467,349.344,158.834L349.41,162.201" id="L-B-C-0" class=" edge-thickness-normal edge-pattern-solid flowchart-link LS-B LE-C" style="fill:none;" marker-end="url(#my-svg_flowchart-pointEnd)"></path><path d="M308.343,476.087L304.389,488.574C300.435,501.06,292.527,526.034,288.573,543.346C284.619,560.658,284.619,570.308,284.619,575.133L284.619,579.958" id="L-C-C1-0" class=" edge-thickness-normal edge-pattern-solid flowchart-link LS-C LE-C1" style="fill:none;" marker-end="url(#my-svg_flowchart-pointEnd)"></path><path d="M390.685,476.087L394.472,488.574C398.259,501.06,405.834,526.034,409.621,547.021C413.408,568.008,413.408,585.008,413.408,600.466C413.408,615.924,413.408,629.841,407.723,640.486C402.037,651.13,390.667,658.502,384.981,662.188L379.296,665.875" id="L-C-D-0" class=" edge-thickness-normal edge-pattern-solid flowchart-link LS-C LE-D" style="fill:none;" marker-end="url(#my-svg_flowchart-pointEnd)"></path><path d="M284.619,618.758L284.619,622.924C284.619,627.091,284.619,635.424,290.305,643.277C295.99,651.13,307.361,658.502,313.046,662.188L318.732,665.875" id="L-C1-D-0" class=" edge-thickness-normal edge-pattern-solid flowchart-link LS-C1 LE-D" style="fill:none;" marker-end="url(#my-svg_flowchart-pointEnd)"></path><path d="M349.014,702.258L349.014,706.424C349.014,710.591,349.014,718.924,349.08,726.458C349.146,733.991,349.278,740.725,349.344,744.092L349.41,747.459" id="L-D-E-0" class=" edge-thickness-normal edge-pattern-solid flowchart-link LS-D LE-E" style="fill:none;" marker-end="url(#my-svg_flowchart-pointEnd)"></path><path d="M252.251,985.745L220.753,1007.581C189.255,1029.416,126.258,1073.087,94.76,1103.422C63.262,1133.758,63.262,1150.758,63.262,1166.216C63.262,1181.674,63.262,1195.591,63.262,1211.049C63.262,1226.508,63.262,1243.508,63.262,1260.508C63.262,1277.508,63.262,1294.508,63.262,1333.247C63.262,1371.986,63.262,1432.464,63.262,1494.483C63.262,1556.503,63.262,1620.064,63.262,1679.544C63.262,1739.023,63.262,1794.422,63.262,1849.82C63.262,1905.219,63.262,1960.617,63.262,1999.9C63.262,2039.182,63.262,2062.349,63.262,2083.974C63.262,2105.599,63.262,2125.682,63.262,2166.299C63.262,2206.915,63.262,2268.065,63.262,2330.757C63.262,2393.448,63.262,2457.681,63.262,2501.381C63.262,2545.081,63.262,2568.247,63.262,2589.872C63.262,2611.497,63.262,2631.581,63.262,2648.622C63.262,2665.664,63.262,2679.664,63.262,2693.664C63.262,2707.664,63.262,2721.664,90.906,2732.703C118.55,2743.742,173.838,2751.82,201.482,2755.859L229.126,2759.898" id="L-E-Z-0" class=" edge-thickness-normal edge-pattern-solid flowchart-link LS-E LE-Z" style="fill:none;" marker-end="url(#my-svg_flowchart-pointEnd)"></path><path d="M406.614,1025.908L414.578,1041.049C422.543,1056.191,438.472,1086.474,446.436,1106.441C454.4,1126.408,454.4,1136.058,454.4,1140.883L454.4,1145.708" id="L-E-F-0" class=" edge-thickness-normal edge-pattern-solid flowchart-link LS-E LE-F" style="fill:none;" marker-end="url(#my-svg_flowchart-pointEnd)"></path><path d="M454.4,1184.508L454.4,1188.674C454.4,1192.841,454.4,1201.174,454.4,1208.624C454.4,1216.074,454.4,1222.641,454.4,1225.924L454.4,1229.208" id="L-F-G-0" class=" edge-thickness-normal edge-pattern-solid flowchart-link LS-F LE-G" style="fill:none;" marker-end="url(#my-svg_flowchart-pointEnd)"></path><path d="M454.4,1286.508L454.4,1290.674C454.4,1294.841,454.4,1303.174,454.466,1310.708C454.532,1318.241,454.664,1324.975,454.73,1328.342L454.796,1331.709" id="L-G-H-0" class=" edge-thickness-normal edge-pattern-solid flowchart-link LS-G LE-H" style="fill:none;" marker-end="url(#my-svg_flowchart-pointEnd)"></path><path d="M363.099,1558.074L333.176,1578.999C303.253,1599.924,243.407,1641.775,213.484,1690.399C183.561,1739.023,183.561,1794.422,183.561,1849.82C183.561,1905.219,183.561,1960.617,183.561,1999.9C183.561,2039.182,183.561,2062.349,183.561,2083.974C183.561,2105.599,183.561,2125.682,183.561,2166.299C183.561,2206.915,183.561,2268.065,183.561,2330.757C183.561,2393.448,183.561,2457.681,194.305,2498.051C205.049,2538.421,226.538,2554.928,237.283,2563.182L248.027,2571.435" id="L-H-N404-0" class=" edge-thickness-normal edge-pattern-solid flowchart-link LS-H LE-N404" style="fill:none;" marker-end="url(#my-svg_flowchart-pointEnd)"></path><path d="M507.547,1597.229L514.81,1611.628C522.073,1626.027,536.599,1654.826,543.933,1674.134C551.266,1693.442,551.407,1703.259,551.478,1708.167L551.549,1713.076" id="L-H-I-0" class=" edge-thickness-normal edge-pattern-solid flowchart-link LS-H LE-I" style="fill:none;" marker-end="url(#my-svg_flowchart-pointEnd)"></path><path d="M478.683,1909.323L456.513,1927.105C434.344,1944.887,390.005,1980.451,367.835,2006.142C345.666,2031.832,345.666,2047.649,345.666,2055.557L345.666,2063.466" id="L-I-J-0" class=" edge-thickness-normal edge-pattern-solid flowchart-link LS-I LE-J" style="fill:none;" marker-end="url(#my-svg_flowchart-pointEnd)"></path><path d="M616.573,1917.317L632.517,1933.767C648.462,1950.217,680.35,1983.116,696.294,2004.391C712.238,2025.666,712.238,2035.316,712.238,2040.141L712.238,2044.966" id="L-I-K-0" class=" edge-thickness-normal edge-pattern-solid flowchart-link LS-I LE-K" style="fill:none;" marker-end="url(#my-svg_flowchart-pointEnd)"></path><path d="M345.666,2102.266L345.666,2109.516C345.666,2116.766,345.666,2131.266,365.382,2156.129C385.099,2180.991,424.531,2216.217,444.248,2233.83L463.964,2251.443" id="L-J-L-0" class=" edge-thickness-normal edge-pattern-solid flowchart-link LS-J LE-L" style="fill:none;" marker-end="url(#my-svg_flowchart-pointEnd)"></path><path d="M712.238,2120.766L712.238,2124.932C712.238,2129.099,712.238,2137.432,698.397,2157.53C684.556,2177.628,656.873,2209.491,643.031,2225.422L629.19,2241.354" id="L-K-L-0" class=" edge-thickness-normal edge-pattern-solid flowchart-link LS-K LE-L" style="fill:none;" marker-end="url(#my-svg_flowchart-pointEnd)"></path><path d="M475.02,2411.559L457.643,2429.951C440.266,2448.344,405.513,2485.129,376.618,2511.798C347.723,2538.467,324.687,2555.019,313.169,2563.295L301.651,2571.571" id="L-L-N404-0" class=" edge-thickness-normal edge-pattern-solid flowchart-link LS-L LE-N404" style="fill:none;" marker-end="url(#my-svg_flowchart-pointEnd)"></path><path d="M599.583,2440.206L605.447,2453.824C611.311,2467.442,623.038,2494.678,628.902,2513.121C634.766,2531.564,634.766,2541.214,634.766,2546.039L634.766,2550.864" id="L-L-M-0" class=" edge-thickness-normal edge-pattern-solid flowchart-link LS-L LE-M" style="fill:none;" marker-end="url(#my-svg_flowchart-pointEnd)"></path><path d="M634.766,2626.664L634.766,2630.831C634.766,2634.997,634.766,2643.331,634.766,2650.781C634.766,2658.231,634.766,2664.797,634.766,2668.081L634.766,2671.364" id="L-M-N-0" class=" edge-thickness-normal edge-pattern-solid flowchart-link LS-M LE-N" style="fill:none;" marker-end="url(#my-svg_flowchart-pointEnd)"></path><path d="M634.766,2710.664L634.766,2714.831C634.766,2718.997,634.766,2727.331,607.122,2735.536C579.477,2743.742,524.189,2751.82,496.545,2755.859L468.901,2759.898" id="L-N-Z-0" class=" edge-thickness-normal edge-pattern-solid flowchart-link LS-N LE-Z" style="fill:none;" marker-end="url(#my-svg_flowchart-pointEnd)"></path><path d="M349.014,2794.164L349.014,2798.331C349.014,2802.497,349.014,2810.831,349.014,2818.281C349.014,2825.731,349.014,2832.297,349.014,2835.581L349.014,2838.864" id="L-Z-P-0" class=" edge-thickness-normal edge-pattern-solid flowchart-link LS-Z LE-P" style="fill:none;" marker-end="url(#my-svg_flowchart-pointEnd)"></path><path d="M270.587,2896.164L258.018,2900.331C245.45,2904.497,220.313,2912.831,207.744,2920.281C195.176,2927.731,195.176,2934.297,195.176,2937.581L195.176,2940.864" id="L-P-RP-0" class=" edge-thickness-normal edge-pattern-dotted flowchart-link LS-P LE-RP" style="fill:none;stroke-width:2px;stroke-dasharray:3;" marker-end="url(#my-svg_flowchart-pointEnd)"></path><path d="M427.441,2896.164L440.009,2900.331C452.578,2904.497,477.715,2912.831,490.283,2921.822C502.852,2930.814,502.852,2940.464,502.852,2945.289L502.852,2950.114" id="L-P-Q-0" class=" edge-thickness-normal edge-pattern-solid flowchart-link LS-P LE-Q" style="fill:none;" marker-end="url(#my-svg_flowchart-pointEnd)"></path><path d="M502.852,2988.914L502.852,2994.622C502.852,3000.331,502.852,3011.747,502.852,3020.739C502.852,3029.731,502.852,3036.297,502.852,3039.581L502.852,3042.864" id="L-Q-R-0" class=" edge-thickness-normal edge-pattern-solid flowchart-link LS-Q LE-R" style="fill:none;" marker-end="url(#my-svg_flowchart-pointEnd)"></path><path d="M502.852,3081.664L502.852,3085.831C502.852,3089.997,502.852,3098.331,502.918,3105.864C502.984,3113.398,503.116,3120.131,503.182,3123.498L503.248,3126.865" id="L-R-S-0" class=" edge-thickness-normal edge-pattern-solid flowchart-link LS-R LE-S" style="fill:none;" marker-end="url(#my-svg_flowchart-pointEnd)"></path><path d="M431.1,3418.49L419.035,3436.157C406.969,3453.824,382.839,3489.158,370.774,3513.192C358.709,3537.226,358.709,3549.959,358.709,3556.326L358.709,3562.692" id="L-S-S1-0" class=" edge-thickness-normal edge-pattern-solid flowchart-link LS-S LE-S1" style="fill:none;" marker-end="url(#my-svg_flowchart-pointEnd)"></path><path d="M575.603,3418.49L587.502,3436.157C599.4,3453.824,623.197,3489.158,635.096,3511.65C646.994,3534.142,646.994,3543.792,646.994,3548.617L646.994,3553.442" id="L-S-T-0" class=" edge-thickness-normal edge-pattern-solid flowchart-link LS-S LE-T" style="fill:none;" marker-end="url(#my-svg_flowchart-pointEnd)"></path><path d="M646.994,3610.742L646.994,3614.909C646.994,3619.076,646.994,3627.409,646.994,3634.859C646.994,3642.309,646.994,3648.876,646.994,3652.159L646.994,3655.442" id="L-T-U-0" class=" edge-thickness-normal edge-pattern-solid flowchart-link LS-T LE-U" style="fill:none;" marker-end="url(#my-svg_flowchart-pointEnd)"></path></g><g class="edgeLabels"><g class="edgeLabel"><g class="label" transform="translate(0, 0)"><foreignObject width="0" height="0"><div xmlns="http://www.w3.org/1999/xhtml" style="display: inline-block; white-space: nowrap;"><span class="edgeLabel"></span></div></foreignObject></g></g><g class="edgeLabel"><g class="label" transform="translate(0, 0)"><foreignObject width="0" height="0"><div xmlns="http://www.w3.org/1999/xhtml" style="display: inline-block; white-space: nowrap;"><span class="edgeLabel"></span></div></foreignObject></g></g><g class="edgeLabel" transform="translate(284.619140625, 551.0078125)"><g class="label" transform="translate(-9.82421875, -9.25)"><foreignObject width="19.6484375" height="18.5"><div xmlns="http://www.w3.org/1999/xhtml" style="display: inline-block; white-space: nowrap;"><span class="edgeLabel">hit</span></div></foreignObject></g></g><g class="edgeLabel" transform="translate(413.408203125, 602.0078125)"><g class="label" transform="translate(-15.3984375, -9.25)"><foreignObject width="30.796875" height="18.5"><div xmlns="http://www.w3.org/1999/xhtml" style="display: inline-block; white-space: nowrap;"><span class="edgeLabel">miss</span></div></foreignObject></g></g><g class="edgeLabel"><g class="label" transform="translate(0, 0)"><foreignObject width="0" height="0"><div xmlns="http://www.w3.org/1999/xhtml" style="display: inline-block; white-space: nowrap;"><span class="edgeLabel"></span></div></foreignObject></g></g><g class="edgeLabel"><g class="label" transform="translate(0, 0)"><foreignObject width="0" height="0"><div xmlns="http://www.w3.org/1999/xhtml" style="display: inline-block; white-space: nowrap;"><span class="edgeLabel"></span></div></foreignObject></g></g><g class="edgeLabel" transform="translate(63.26171875, 2016.015625)"><g class="label" transform="translate(-9.82421875, -9.25)"><foreignObject width="19.6484375" height="18.5"><div xmlns="http://www.w3.org/1999/xhtml" style="display: inline-block; white-space: nowrap;"><span class="edgeLabel">hit</span></div></foreignObject></g></g><g class="edgeLabel" transform="translate(454.400390625, 1116.7578125)"><g class="label" transform="translate(-15.3984375, -9.25)"><foreignObject width="30.796875" height="18.5"><div xmlns="http://www.w3.org/1999/xhtml" style="display: inline-block; white-space: nowrap;"><span class="edgeLabel">miss</span></div></foreignObject></g></g><g class="edgeLabel"><g class="label" transform="translate(0, 0)"><foreignObject width="0" height="0"><div xmlns="http://www.w3.org/1999/xhtml" style="display: inline-block; white-space: nowrap;"><span class="edgeLabel"></span></div></foreignObject></g></g><g class="edgeLabel"><g class="label" transform="translate(0, 0)"><foreignObject width="0" height="0"><div xmlns="http://www.w3.org/1999/xhtml" style="display: inline-block; white-space: nowrap;"><span class="edgeLabel"></span></div></foreignObject></g></g><g class="edgeLabel" transform="translate(183.560546875, 2085.515625)"><g class="label" transform="translate(-8.6640625, -9.25)"><foreignObject width="17.328125" height="18.5"><div xmlns="http://www.w3.org/1999/xhtml" style="display: inline-block; white-space: nowrap;"><span class="edgeLabel">no</span></div></foreignObject></g></g><g class="edgeLabel" transform="translate(551.125, 1683.625)"><g class="label" transform="translate(-11.546875, -9.25)"><foreignObject width="23.09375" height="18.5"><div xmlns="http://www.w3.org/1999/xhtml" style="display: inline-block; white-space: nowrap;"><span class="edgeLabel">yes</span></div></foreignObject></g></g><g class="edgeLabel" transform="translate(345.666015625, 2016.015625)"><g class="label" transform="translate(-11.546875, -9.25)"><foreignObject width="23.09375" height="18.5"><div xmlns="http://www.w3.org/1999/xhtml" style="display: inline-block; white-space: nowrap;"><span class="edgeLabel">yes</span></div></foreignObject></g></g><g class="edgeLabel" transform="translate(712.23828125, 2016.015625)"><g class="label" transform="translate(-8.6640625, -9.25)"><foreignObject width="17.328125" height="18.5"><div xmlns="http://www.w3.org/1999/xhtml" style="display: inline-block; white-space: nowrap;"><span class="edgeLabel">no</span></div></foreignObject></g></g><g class="edgeLabel"><g class="label" transform="translate(0, 0)"><foreignObject width="0" height="0"><div xmlns="http://www.w3.org/1999/xhtml" style="display: inline-block; white-space: nowrap;"><span class="edgeLabel"></span></div></foreignObject></g></g><g class="edgeLabel"><g class="label" transform="translate(0, 0)"><foreignObject width="0" height="0"><div xmlns="http://www.w3.org/1999/xhtml" style="display: inline-block; white-space: nowrap;"><span class="edgeLabel"></span></div></foreignObject></g></g><g class="edgeLabel" transform="translate(370.759765625, 2521.9140625)"><g class="label" transform="translate(-8.6640625, -9.25)"><foreignObject width="17.328125" height="18.5"><div xmlns="http://www.w3.org/1999/xhtml" style="display: inline-block; white-space: nowrap;"><span class="edgeLabel">no</span></div></foreignObject></g></g><g class="edgeLabel" transform="translate(634.765625, 2521.9140625)"><g class="label" transform="translate(-11.546875, -9.25)"><foreignObject width="23.09375" height="18.5"><div xmlns="http://www.w3.org/1999/xhtml" style="display: inline-block; white-space: nowrap;"><span class="edgeLabel">yes</span></div></foreignObject></g></g><g class="edgeLabel"><g class="label" transform="translate(0, 0)"><foreignObject width="0" height="0"><div xmlns="http://www.w3.org/1999/xhtml" style="display: inline-block; white-space: nowrap;"><span class="edgeLabel"></span></div></foreignObject></g></g><g class="edgeLabel"><g class="label" transform="translate(0, 0)"><foreignObject width="0" height="0"><div xmlns="http://www.w3.org/1999/xhtml" style="display: inline-block; white-space: nowrap;"><span class="edgeLabel"></span></div></foreignObject></g></g><g class="edgeLabel"><g class="label" transform="translate(0, 0)"><foreignObject width="0" height="0"><div xmlns="http://www.w3.org/1999/xhtml" style="display: inline-block; white-space: nowrap;"><span class="edgeLabel"></span></div></foreignObject></g></g><g class="edgeLabel"><g class="label" transform="translate(0, 0)"><foreignObject width="0" height="0"><div xmlns="http://www.w3.org/1999/xhtml" style="display: inline-block; white-space: nowrap;"><span class="edgeLabel"></span></div></foreignObject></g></g><g class="edgeLabel"><g class="label" transform="translate(0, 0)"><foreignObject width="0" height="0"><div xmlns="http://www.w3.org/1999/xhtml" style="display: inline-block; white-space: nowrap;"><span class="edgeLabel"></span></div></foreignObject></g></g><g class="edgeLabel"><g class="label" transform="translate(0, 0)"><foreignObject width="0" height="0"><div xmlns="http://www.w3.org/1999/xhtml" style="display: inline-block; white-space: nowrap;"><span class="edgeLabel"></span></div></foreignObject></g></g><g class="edgeLabel"><g class="label" transform="translate(0, 0)"><foreignObject width="0" height="0"><div xmlns="http://www.w3.org/1999/xhtml" style="display: inline-block; white-space: nowrap;"><span class="edgeLabel"></span></div></foreignObject></g></g><g class="edgeLabel" transform="translate(358.708984375, 3524.4921875)"><g class="label" transform="translate(-76.796875, -9.25)"><foreignObject width="153.59375" height="18.5"><div xmlns="http://www.w3.org/1999/xhtml" style="display: inline-block; white-space: nowrap;"><span class="edgeLabel">private or unroutable</span></div></foreignObject></g></g><g class="edgeLabel" transform="translate(646.994140625, 3524.4921875)"><g class="label" transform="translate(-21.88671875, -9.25)"><foreignObject width="43.7734375" height="18.5"><div xmlns="http://www.w3.org/1999/xhtml" style="display: inline-block; white-space: nowrap;"><span class="edgeLabel">public</span></div></foreignObject></g></g><g class="edgeLabel"><g class="label" transform="translate(0, 0)"><foreignObject width="0" height="0"><div xmlns="http://www.w3.org/1999/xhtml" style="display: inline-block; white-space: nowrap;"><span class="edgeLabel"></span></div></foreignObject></g></g></g><g class="nodes"><g class="node default default flowchart-label" id="flowchart-A-186" data-node="true" data-id="A" transform="translate(349.013671875, 16.75)"><rect style="" rx="16.75" ry="16.75" x="-89.26171875" y="-16.75" width="178.5234375" height="33.5"></rect><g class="label" style="" transform="translate(-77.57421875, -9.25)"><rect></rect><foreignObject width="155.1484375" height="18.5"><div xmlns="http://www.w3.org/1999/xhtml" style="display: inline-block; white-space: nowrap;"><span class="nodeLabel">Reader opens a paper</span></div></foreignObject></g></g><g class="node default default flowchart-label" id="flowchart-B-187" data-node="true" data-id="B" transform="translate(349.013671875, 100.25)"><rect class="basic label-container" style="" rx="0" ry="0" x="-119.69140625" y="-16.75" width="239.3828125" height="33.5"></rect><g class="label" style="" transform="translate(-112.19140625, -9.25)"><rect></rect><foreignObject width="224.3828125" height="18.5"><div xmlns="http://www.w3.org/1999/xhtml" style="display: inline-block; white-space: nowrap;"><span class="nodeLabel">/paper/:id — client component</span></div></foreignObject></g></g><g class="node default store flowchart-label" id="flowchart-C-189" data-node="true" data-id="C" transform="translate(349.013671875, 341.87890625)"><polygon points="174.87890625,0 349.7578125,-174.87890625 174.87890625,-349.7578125 0,-174.87890625" class="label-container" transform="translate(-174.87890625,174.87890625)" style=""></polygon><g class="label" style="" transform="translate(-141.37890625, -18.5)"><rect></rect><foreignObject width="282.7578125" height="37"><div xmlns="http://www.w3.org/1999/xhtml" style="display: inline-block; white-space: nowrap;"><span class="nodeLabel">sessionStorage — stashed by ResultCard<br/>on the way out of the results list</span></div></foreignObject></g></g><g class="node default default flowchart-label" id="flowchart-C1-191" data-node="true" data-id="C1" transform="translate(284.619140625, 602.0078125)"><rect class="basic label-container" style="" rx="0" ry="0" x="-78.390625" y="-16.75" width="156.78125" height="33.5"></rect><g class="label" style="" transform="translate(-70.890625, -9.25)"><rect></rect><foreignObject width="141.78125" height="18.5"><div xmlns="http://www.w3.org/1999/xhtml" style="display: inline-block; white-space: nowrap;"><span class="nodeLabel">render immediately</span></div></foreignObject></g></g><g class="node default default flowchart-label" id="flowchart-D-193" data-node="true" data-id="D" transform="translate(349.013671875, 685.5078125)"><rect class="basic label-container" style="" rx="0" ry="0" x="-77.8984375" y="-16.75" width="155.796875" height="33.5"></rect><g class="label" style="" transform="translate(-70.3984375, -9.25)"><rect></rect><foreignObject width="140.796875" height="18.5"><div xmlns="http://www.w3.org/1999/xhtml" style="display: inline-block; white-space: nowrap;"><span class="nodeLabel">GET /api/paper/:id</span></div></foreignObject></g></g><g class="node default store flowchart-label" id="flowchart-E-197" data-node="true" data-id="E" transform="translate(349.013671875, 917.3828125)"><polygon points="165.125,0 330.25,-165.125 165.125,-330.25 0,-165.125" class="label-container" transform="translate(-165.125,165.125)" style=""></polygon><g class="label" style="" transform="translate(-131.625, -18.5)"><rect></rect><foreignObject width="263.25" height="37"><div xmlns="http://www.w3.org/1999/xhtml" style="display: inline-block; white-space: nowrap;"><span class="nodeLabel">PaperCacheManager.getCachedPaper<br/>paper:hash(id)</span></div></foreignObject></g></g><g class="node default default flowchart-label" id="flowchart-Z-199" data-node="true" data-id="Z" transform="translate(349.013671875, 2777.4140625)"><rect class="basic label-container" style="" rx="0" ry="0" x="-131.34765625" y="-16.75" width="262.6953125" height="33.5"></rect><g class="label" style="" transform="translate(-123.84765625, -9.25)"><rect></rect><foreignObject width="247.6953125" height="18.5"><div xmlns="http://www.w3.org/1999/xhtml" style="display: inline-block; white-space: nowrap;"><span class="nodeLabel">200 · Cache-Control: max-age=600</span></div></foreignObject></g></g><g class="node default default flowchart-label" id="flowchart-F-201" data-node="true" data-id="F" transform="translate(454.400390625, 1167.7578125)"><rect class="basic label-container" style="" rx="0" ry="0" x="-115.22265625" y="-16.75" width="230.4453125" height="33.5"></rect><g class="label" style="" transform="translate(-107.72265625, -9.25)"><rect></rect><foreignObject width="215.4453125" height="18.5"><div xmlns="http://www.w3.org/1999/xhtml" style="display: inline-block; white-space: nowrap;"><span class="nodeLabel">lookupPaper('source:nativeId')</span></div></foreignObject></g></g><g class="node default default flowchart-label" id="flowchart-G-203" data-node="true" data-id="G" transform="translate(454.400390625, 1260.5078125)"><rect class="basic label-container" style="" rx="0" ry="0" x="-145.44140625" y="-26" width="290.8828125" height="52"></rect><g class="label" style="" transform="translate(-137.94140625, -18.5)"><rect></rect><foreignObject width="275.8828125" height="37"><div xmlns="http://www.w3.org/1999/xhtml" style="display: inline-block; white-space: nowrap;"><span class="nodeLabel">splitPaperId — on the first colon only<br/>DOIs and OpenAIRE ids carry their own</span></div></foreignObject></g></g><g class="node default gate flowchart-label" id="flowchart-H-205" data-node="true" data-id="H" transform="translate(454.400390625, 1492.94140625)"><polygon points="156.43359375,0 312.8671875,-156.43359375 156.43359375,-312.8671875 0,-156.43359375" class="label-container" transform="translate(-156.43359375,156.43359375)" style=""></polygon><g class="label" style="" transform="translate(-132.18359375, -9.25)"><rect></rect><foreignObject width="264.3671875" height="18.5"><div xmlns="http://www.w3.org/1999/xhtml" style="display: inline-block; white-space: nowrap;"><span class="nodeLabel">does the registry know this provider?</span></div></foreignObject></g></g><g class="node default default flowchart-label" id="flowchart-N404-207" data-node="true" data-id="N404" transform="translate(274.03515625, 2591.4140625)"><rect class="basic label-container" style="" rx="0" ry="0" x="-175.7734375" y="-16.75" width="351.546875" height="33.5"></rect><g class="label" style="" transform="translate(-168.2734375, -9.25)"><rect></rect><foreignObject width="336.546875" height="18.5"><div xmlns="http://www.w3.org/1999/xhtml" style="display: inline-block; white-space: nowrap;"><span class="nodeLabel">404 — a near miss is not somebody else's paper</span></div></foreignObject></g></g><g class="node default gate flowchart-label" id="flowchart-I-209" data-node="true" data-id="I" transform="translate(551.125, 1849.8203125)"><polygon points="131.9453125,0 263.890625,-131.9453125 131.9453125,-263.890625 0,-131.9453125" class="label-container" transform="translate(-131.9453125,131.9453125)" style=""></polygon><g class="label" style="" transform="translate(-107.6953125, -9.25)"><rect></rect><foreignObject width="215.390625" height="18.5"><div xmlns="http://www.w3.org/1999/xhtml" style="display: inline-block; white-space: nowrap;"><span class="nodeLabel">does it have a by-id endpoint?</span></div></foreignObject></g></g><g class="node default default flowchart-label" id="flowchart-J-211" data-node="true" data-id="J" transform="translate(345.666015625, 2085.515625)"><rect class="basic label-container" style="" rx="0" ry="0" x="-87.09765625" y="-16.75" width="174.1953125" height="33.5"></rect><g class="label" style="" transform="translate(-79.59765625, -9.25)"><rect></rect><foreignObject width="159.1953125" height="18.5"><div xmlns="http://www.w3.org/1999/xhtml" style="display: inline-block; white-space: nowrap;"><span class="nodeLabel">entry.lookup(nativeId)</span></div></foreignObject></g></g><g class="node default default flowchart-label" id="flowchart-K-213" data-node="true" data-id="K" transform="translate(712.23828125, 2085.515625)"><rect class="basic label-container" style="" rx="0" ry="0" x="-185.12890625" y="-35.25" width="370.2578125" height="70.5"></rect><g class="label" style="" transform="translate(-177.62890625, -27.75)"><rect></rect><foreignObject width="355.2578125" height="55.5"><div xmlns="http://www.w3.org/1999/xhtml" style="display: inline-block; white-space: nowrap;"><span class="nodeLabel">entry.search(parseQuery(nativeId), depth 10)<br/>openAccessOnly:false — whether a record is open<br/>is a fact about it, not a condition on finding it</span></div></foreignObject></g></g><g class="node default gate flowchart-label" id="flowchart-L-215" data-node="true" data-id="L" transform="translate(551.125, 2329.21484375)"><polygon points="158.44921875,0 316.8984375,-158.44921875 158.44921875,-316.8984375 0,-158.44921875" class="label-container" transform="translate(-158.44921875,158.44921875)" style=""></polygon><g class="label" style="" transform="translate(-124.94921875, -18.5)"><rect></rect><foreignObject width="249.8984375" height="37"><div xmlns="http://www.w3.org/1999/xhtml" style="display: inline-block; white-space: nowrap;"><span class="nodeLabel">is it the record that was asked for?<br/>source and nativeId compared</span></div></foreignObject></g></g><g class="node default default flowchart-label" id="flowchart-M-221" data-node="true" data-id="M" transform="translate(634.765625, 2591.4140625)"><rect class="basic label-container" style="" rx="0" ry="0" x="-134.95703125" y="-35.25" width="269.9140625" height="70.5"></rect><g class="label" style="" transform="translate(-127.45703125, -27.75)"><rect></rect><foreignObject width="254.9140625" height="55.5"><div xmlns="http://www.w3.org/1999/xhtml" style="display: inline-block; white-space: nowrap;"><span class="nodeLabel">enrichPage on the single record<br/>so a shared link and a click-through<br/>return the same body</span></div></foreignObject></g></g><g class="node default default flowchart-label" id="flowchart-N-223" data-node="true" data-id="N" transform="translate(634.765625, 2693.6640625)"><rect class="basic label-container" style="" rx="0" ry="0" x="-128.01171875" y="-17" width="256.0234375" height="34"></rect><g class="label" style="" transform="translate(-120.51171875, -9.5)"><rect></rect><foreignObject width="241.0234375" height="19"><div xmlns="http://www.w3.org/1999/xhtml" style="display: inline-block; white-space: nowrap;"><span class="nodeLabel">toOARecord → cachePaperDetails</span></div></foreignObject></g></g><g class="node default default flowchart-label" id="flowchart-P-226" data-node="true" data-id="P" transform="translate(349.013671875, 2870.1640625)"><rect class="basic label-container" style="" rx="0" ry="0" x="-172.8828125" y="-26" width="345.765625" height="52"></rect><g class="label" style="" transform="translate(-165.3828125, -18.5)"><rect></rect><foreignObject width="330.765625" height="37"><div xmlns="http://www.w3.org/1999/xhtml" style="display: inline-block; white-space: nowrap;"><span class="nodeLabel">PaperHeader · PaperAbstract · PaperMetadata<br/>PaperCitations · PaperActions · RelatedPapers</span></div></foreignObject></g></g><g class="node default default flowchart-label" id="flowchart-RP-228" data-node="true" data-id="RP" transform="translate(195.17578125, 2972.1640625)"><rect class="basic label-container" style="" rx="0" ry="0" x="-195.17578125" y="-26" width="390.3515625" height="52"></rect><g class="label" style="" transform="translate(-187.67578125, -18.5)"><rect></rect><foreignObject width="375.3515625" height="37"><div xmlns="http://www.w3.org/1999/xhtml" style="display: inline-block; white-space: nowrap;"><span class="nodeLabel">RelatedPapers links the topics already on the record<br/>to the searches they stand for — no second fan-out</span></div></foreignObject></g></g><g class="node default default flowchart-label" id="flowchart-Q-230" data-node="true" data-id="Q" transform="translate(502.8515625, 2972.1640625)"><rect style="" rx="16.75" ry="16.75" x="-62.5" y="-16.75" width="125" height="33.5"></rect><g class="label" style="" transform="translate(-50.8125, -9.25)"><rect></rect><foreignObject width="101.625" height="18.5"><div xmlns="http://www.w3.org/1999/xhtml" style="display: inline-block; white-space: nowrap;"><span class="nodeLabel">Download PDF</span></div></foreignObject></g></g><g class="node default default flowchart-label" id="flowchart-R-232" data-node="true" data-id="R" transform="translate(502.8515625, 3064.9140625)"><rect class="basic label-container" style="" rx="0" ry="0" x="-160.0703125" y="-16.75" width="320.140625" height="33.5"></rect><g class="label" style="" transform="translate(-152.5703125, -9.25)"><rect></rect><foreignObject width="305.140625" height="18.5"><div xmlns="http://www.w3.org/1999/xhtml" style="display: inline-block; white-space: nowrap;"><span class="nodeLabel">POST /api/download-pdf {paperId, pdfUrl}</span></div></foreignObject></g></g><g class="node default gate flowchart-label" id="flowchart-S-234" data-node="true" data-id="S" transform="translate(502.8515625, 3310.953125)"><polygon points="179.2890625,0 358.578125,-179.2890625 179.2890625,-358.578125 0,-179.2890625" class="label-container" transform="translate(-179.2890625,179.2890625)" style=""></polygon><g class="label" style="" transform="translate(-145.7890625, -18.5)"><rect></rect><foreignObject width="291.578125" height="37"><div xmlns="http://www.w3.org/1999/xhtml" style="display: inline-block; white-space: nowrap;"><span class="nodeLabel">assertPublicHttpUrl<br/>scheme · DNS resolution · private ranges</span></div></foreignObject></g></g><g class="node default default flowchart-label" id="flowchart-S1-236" data-node="true" data-id="S1" transform="translate(358.708984375, 3584.7421875)"><rect class="basic label-container" style="" rx="0" ry="0" x="-97.2578125" y="-16.75" width="194.515625" height="33.5"></rect><g class="label" style="" transform="translate(-89.7578125, -9.25)"><rect></rect><foreignObject width="179.515625" height="18.5"><div xmlns="http://www.w3.org/1999/xhtml" style="display: inline-block; white-space: nowrap;"><span class="nodeLabel">refused — ESSRFREFUSED</span></div></foreignObject></g></g><g class="node default default flowchart-label" id="flowchart-T-238" data-node="true" data-id="T" transform="translate(646.994140625, 3584.7421875)"><rect class="basic label-container" style="" rx="0" ry="0" x="-141.02734375" y="-26" width="282.0546875" height="52"></rect><g class="label" style="" transform="translate(-133.52734375, -18.5)"><rect></rect><foreignObject width="267.0546875" height="37"><div xmlns="http://www.w3.org/1999/xhtml" style="display: inline-block; white-space: nowrap;"><span class="nodeLabel">fetchPdfStream, capped at 50 MB<br/>guardedLookup re-checks on redirect</span></div></foreignObject></g></g><g class="node default default flowchart-label" id="flowchart-U-240" data-node="true" data-id="U" transform="translate(646.994140625, 3686.7421875)"><rect class="basic label-container" style="" rx="0" ry="0" x="-128.48046875" y="-26" width="256.9609375" height="52"></rect><g class="label" style="" transform="translate(-120.98046875, -18.5)"><rect></rect><foreignObject width="241.9609375" height="37"><div xmlns="http://www.w3.org/1999/xhtml" style="display: inline-block; white-space: nowrap;"><span class="nodeLabel">streamed back as application/pdf<br/>Content-Disposition: attachment</span></div></foreignObject></g></g></g></g></g></svg>